<svg version="1.1" xmlns="http://www.w3.org/2000/svg" viewBox="25.43 47.47 461.13 417.18">
<path d="M0 0 C1.49906909 -0.00373975 2.99813624 -0.00834256 4.49720031 -0.01373065 C8.6042229 -0.02593612 12.71116389 -0.02570307 16.81820047 -0.02334189 C21.25258213 -0.0229331 25.68693785 -0.03397886 30.12130737 -0.04345703 C38.80480508 -0.06005484 47.48827563 -0.06556604 56.17178788 -0.06668179 C63.23241667 -0.0676329 70.29303653 -0.07174633 77.35366249 -0.07808304 C97.38340856 -0.09569258 117.41313322 -0.10492243 137.44288709 -0.10342209 C139.06187873 -0.10330222 139.06187873 -0.10330222 140.71357727 -0.10317993 C141.794227 -0.10309817 142.87487673 -0.10301641 143.98827342 -0.10293217 C161.49683963 -0.10211948 179.00531976 -0.12125354 196.51386108 -0.14945666 C214.50285066 -0.17820442 232.49179829 -0.1919959 250.48081142 -0.19026911 C260.57568136 -0.18960584 270.67046107 -0.19507071 280.76531029 -0.21662521 C289.36124241 -0.23486195 297.95704341 -0.23916393 306.55298652 -0.22560637 C310.93539608 -0.21908913 315.31755429 -0.21891431 319.69993973 -0.23631287 C323.71895588 -0.25210411 327.73752264 -0.2491188 331.75652824 -0.2317446 C333.20335002 -0.22868794 334.65020585 -0.23225635 336.09698745 -0.24346475 C353.203536 -0.36711731 367.47488815 4.54540686 380.05659485 16.32992554 C397.49865842 34.80391495 397.91587498 56.13523353 397.82949352 80.26734352 C397.82035385 84.0520266 397.83445643 87.83663889 397.84541321 91.62130737 C397.86310894 99.01469415 397.85939865 106.40791761 397.84776264 113.80131054 C397.83869311 119.81529761 397.83751946 125.82923923 397.84185791 131.8432312 C397.84247084 132.7023565 397.84308377 133.5614818 397.84371528 134.44664121 C397.84499431 136.19246897 397.84629116 137.93829673 397.84760565 139.68412447 C397.85898523 156.01734654 397.84593903 172.3504785 397.82440418 188.68368578 C397.80653559 202.66867537 397.80964043 216.6535321 397.82807922 230.63851929 C397.84953241 246.91718605 397.85788684 263.19577404 397.84563017 279.47445297 C397.8443561 281.21350859 397.84309862 282.95256423 397.84185791 284.69161987 C397.84093226 285.97476668 397.84093226 285.97476668 397.8399879 287.28383565 C397.83654832 293.28379679 397.84233316 299.28370755 397.85177612 305.28366089 C397.86304709 312.60536733 397.85984975 319.92690246 397.83865315 327.24858952 C397.82821075 330.97726927 397.82390287 334.70566441 397.83724976 338.43434143 C397.91308221 361.57039863 397.30598005 381.39961269 380.51753235 399.05258179 C379.78792297 399.78348022 379.0583136 400.51437866 378.30659485 401.26742554 C377.74198547 401.84363647 377.1773761 402.41984741 376.59565735 403.01351929 C364.85169791 414.04138364 349.83993173 416.72461897 334.38613892 416.66183472 C332.88676679 416.66673044 331.38739844 416.67292339 329.88803643 416.68029261 C325.78935896 416.69662922 321.69087464 416.69438705 317.59217608 416.68891764 C313.16323361 416.68623962 308.73434173 416.7007938 304.30541992 416.7130127 C295.63622006 416.73403731 286.96708712 416.73860921 278.29786477 416.73682481 C271.24778486 416.73551553 264.19772576 416.7393298 257.14764977 416.74674988 C255.11435626 416.74884916 253.08106276 416.75094676 251.04776925 416.7530427 C249.52955595 416.75460799 249.52955595 416.75460799 247.98067167 416.7562049 C228.85007604 416.77509577 209.71951878 416.7740608 190.58891769 416.76723558 C173.10767255 416.76166267 155.62657407 416.78247685 138.14536319 416.81559604 C120.17663438 416.8493734 102.20797574 416.86449622 84.2392146 416.85987902 C74.15882517 416.8576382 64.07857123 416.86282052 53.998209 416.88777161 C45.41479884 416.90883717 36.83159846 416.91232486 28.24817953 416.89347202 C23.87356064 416.88434597 19.49933233 416.88307429 15.12474442 416.90382767 C11.11054683 416.9226597 7.09705637 416.91789922 3.08288469 416.89528185 C1.64012568 416.89112663 0.19731113 416.89519104 -1.24538895 416.90887779 C-18.60838142 417.0622211 -33.06619655 411.58482257 -45.88090515 399.70492554 C-63.16279643 381.48887797 -63.30117084 359.97653166 -63.21630383 336.26750755 C-63.20716415 332.48282447 -63.22126673 328.69821219 -63.23222351 324.9135437 C-63.24991924 317.52015692 -63.24620896 310.12693346 -63.23457295 302.73354053 C-63.22550342 296.71955346 -63.22432976 290.70561184 -63.22866821 284.69161987 C-63.22928115 283.83249457 -63.22989408 282.97336927 -63.23052558 282.08820987 C-63.23180461 280.3423821 -63.23310147 278.59655435 -63.23441595 276.8507266 C-63.24579553 260.51750454 -63.23274933 244.18437258 -63.21121448 227.85116529 C-63.19334589 213.86617571 -63.19645074 199.88131898 -63.21488953 185.89633179 C-63.23634272 169.61766502 -63.24469714 153.33907703 -63.23244047 137.0603981 C-63.23116641 135.32134248 -63.22990892 133.58228685 -63.22866821 131.8432312 C-63.22805111 130.98779999 -63.22743401 130.13236879 -63.22679821 129.25101542 C-63.22335862 123.25105428 -63.22914347 117.25114352 -63.23858643 111.25119019 C-63.24985739 103.92948374 -63.24666006 96.60794862 -63.22546345 89.28626156 C-63.21502106 85.55758181 -63.21071317 81.82918666 -63.22406006 78.10050964 C-63.29987132 54.97091812 -62.69999225 35.11643418 -45.89653015 17.47836304 C-45.1694989 16.74875366 -44.44246765 16.01914429 -43.69340515 15.26742554 C-43.1519989 14.70281616 -42.61059265 14.13820679 -42.05278015 13.55648804 C-30.32528008 2.36205615 -15.48779108 -0.03664945 0 0 Z " fill="#2574E1" transform="translate(88.69340515136719,47.732574462890625)"/>
<path d="M0 0 C1.49906909 -0.00373975 2.99813624 -0.00834256 4.49720031 -0.01373065 C8.6042229 -0.02593612 12.71116389 -0.02570307 16.81820047 -0.02334189 C21.25258213 -0.0229331 25.68693785 -0.03397886 30.12130737 -0.04345703 C38.80480508 -0.06005484 47.48827563 -0.06556604 56.17178788 -0.06668179 C63.23241667 -0.0676329 70.29303653 -0.07174633 77.35366249 -0.07808304 C97.38340856 -0.09569258 117.41313322 -0.10492243 137.44288709 -0.10342209 C139.06187873 -0.10330222 139.06187873 -0.10330222 140.71357727 -0.10317993 C141.794227 -0.10309817 142.87487673 -0.10301641 143.98827342 -0.10293217 C161.49683963 -0.10211948 179.00531976 -0.12125354 196.51386108 -0.14945666 C214.50285066 -0.17820442 232.49179829 -0.1919959 250.48081142 -0.19026911 C260.57568136 -0.18960584 270.67046107 -0.19507071 280.76531029 -0.21662521 C289.36124241 -0.23486195 297.95704341 -0.23916393 306.55298652 -0.22560637 C310.93539608 -0.21908913 315.31755429 -0.21891431 319.69993973 -0.23631287 C323.71895588 -0.25210411 327.73752264 -0.2491188 331.75652824 -0.2317446 C333.20335002 -0.22868794 334.65020585 -0.23225635 336.09698745 -0.24346475 C353.203536 -0.36711731 367.47488815 4.54540686 380.05659485 16.32992554 C397.49865842 34.80391495 397.91587498 56.13523353 397.82949352 80.26734352 C397.82035385 84.0520266 397.83445643 87.83663889 397.84541321 91.62130737 C397.86310894 99.01469415 397.85939865 106.40791761 397.84776264 113.80131054 C397.83869311 119.81529761 397.83751946 125.82923923 397.84185791 131.8432312 C397.84247084 132.7023565 397.84308377 133.5614818 397.84371528 134.44664121 C397.84499431 136.19246897 397.84629116 137.93829673 397.84760565 139.68412447 C397.85898523 156.01734654 397.84593903 172.3504785 397.82440418 188.68368578 C397.80653559 202.66867537 397.80964043 216.6535321 397.82807922 230.63851929 C397.84953241 246.91718605 397.85788684 263.19577404 397.84563017 279.47445297 C397.8443561 281.21350859 397.84309862 282.95256423 397.84185791 284.69161987 C397.84093226 285.97476668 397.84093226 285.97476668 397.8399879 287.28383565 C397.83654832 293.28379679 397.84233316 299.28370755 397.85177612 305.28366089 C397.86304709 312.60536733 397.85984975 319.92690246 397.83865315 327.24858952 C397.82821075 330.97726927 397.82390287 334.70566441 397.83724976 338.43434143 C397.91308221 361.57039863 397.30598005 381.39961269 380.51753235 399.05258179 C379.78792297 399.78348022 379.0583136 400.51437866 378.30659485 401.26742554 C377.74198547 401.84363647 377.1773761 402.41984741 376.59565735 403.01351929 C364.85169791 414.04138364 349.83993173 416.72461897 334.38613892 416.66183472 C332.88676679 416.66673044 331.38739844 416.67292339 329.88803643 416.68029261 C325.78935896 416.69662922 321.69087464 416.69438705 317.59217608 416.68891764 C313.16323361 416.68623962 308.73434173 416.7007938 304.30541992 416.7130127 C295.63622006 416.73403731 286.96708712 416.73860921 278.29786477 416.73682481 C271.24778486 416.73551553 264.19772576 416.7393298 257.14764977 416.74674988 C255.11435626 416.74884916 253.08106276 416.75094676 251.04776925 416.7530427 C249.52955595 416.75460799 249.52955595 416.75460799 247.98067167 416.7562049 C228.85007604 416.77509577 209.71951878 416.7740608 190.58891769 416.76723558 C173.10767255 416.76166267 155.62657407 416.78247685 138.14536319 416.81559604 C120.17663438 416.8493734 102.20797574 416.86449622 84.2392146 416.85987902 C74.15882517 416.8576382 64.07857123 416.86282052 53.998209 416.88777161 C45.41479884 416.90883717 36.83159846 416.91232486 28.24817953 416.89347202 C23.87356064 416.88434597 19.49933233 416.88307429 15.12474442 416.90382767 C11.11054683 416.9226597 7.09705637 416.91789922 3.08288469 416.89528185 C1.64012568 416.89112663 0.19731113 416.89519104 -1.24538895 416.90887779 C-18.60838142 417.0622211 -33.06619655 411.58482257 -45.88090515 399.70492554 C-63.16279643 381.48887797 -63.30117084 359.97653166 -63.21630383 336.26750755 C-63.20716415 332.48282447 -63.22126673 328.69821219 -63.23222351 324.9135437 C-63.24991924 317.52015692 -63.24620896 310.12693346 -63.23457295 302.73354053 C-63.22550342 296.71955346 -63.22432976 290.70561184 -63.22866821 284.69161987 C-63.22928115 283.83249457 -63.22989408 282.97336927 -63.23052558 282.08820987 C-63.23180461 280.3423821 -63.23310147 278.59655435 -63.23441595 276.8507266 C-63.24579553 260.51750454 -63.23274933 244.18437258 -63.21121448 227.85116529 C-63.19334589 213.86617571 -63.19645074 199.88131898 -63.21488953 185.89633179 C-63.23634272 169.61766502 -63.24469714 153.33907703 -63.23244047 137.0603981 C-63.23116641 135.32134248 -63.22990892 133.58228685 -63.22866821 131.8432312 C-63.22805111 130.98779999 -63.22743401 130.13236879 -63.22679821 129.25101542 C-63.22335862 123.25105428 -63.22914347 117.25114352 -63.23858643 111.25119019 C-63.24985739 103.92948374 -63.24666006 96.60794862 -63.22546345 89.28626156 C-63.21502106 85.55758181 -63.21071317 81.82918666 -63.22406006 78.10050964 C-63.29987132 54.97091812 -62.69999225 35.11643418 -45.89653015 17.47836304 C-45.1694989 16.74875366 -44.44246765 16.01914429 -43.69340515 15.26742554 C-43.1519989 14.70281616 -42.61059265 14.13820679 -42.05278015 13.55648804 C-30.32528008 2.36205615 -15.48779108 -0.03664945 0 0 Z M-25.2207489 42.91195679 C-29.91895567 50.4265952 -30.12527112 57.28449037 -30.08108521 65.93096924 C-30.08647074 67.19665021 -30.09185628 68.46233118 -30.09740502 69.76636612 C-30.11181951 73.26354762 -30.10762754 76.76049264 -30.1002382 80.25768685 C-30.09549886 84.0355729 -30.10802318 87.81340836 -30.11825562 91.59127808 C-30.13543422 98.98639274 -30.13628555 106.3814224 -30.13104271 113.77655183 C-30.12699787 119.7888701 -30.1284483 125.8011633 -30.13379097 131.81348038 C-30.13453939 132.66987121 -30.13528781 133.52626205 -30.13605892 134.40860412 C-30.13759043 136.14848454 -30.13912877 137.88836496 -30.14067388 139.62824537 C-30.15439564 155.93738704 -30.14896362 172.24648071 -30.13748867 188.55562128 C-30.1275576 203.46668131 -30.14049534 218.37761724 -30.16442286 233.28865813 C-30.1888225 248.60968072 -30.19841955 263.93064554 -30.19177014 279.25168717 C-30.18827971 287.84913182 -30.19049824 296.44648104 -30.20802116 305.04391098 C-30.222754 312.36304679 -30.22336454 319.68201997 -30.20595025 327.00115262 C-30.19744654 330.73308999 -30.19527499 334.46473698 -30.21060181 338.19665909 C-30.22703393 342.24797884 -30.21228207 346.29860009 -30.1946106 350.34991455 C-30.2042156 351.52152315 -30.21382061 352.69313175 -30.22371668 353.90024364 C-30.14980127 362.14584952 -28.86391397 369.33505693 -23.5801239 375.88851929 C-22.85438171 376.48793335 -22.12863953 377.08734741 -21.38090515 377.70492554 C-20.66289734 378.32238647 -19.94488953 378.93984741 -19.2051239 379.57601929 C-11.46330099 384.78940859 -4.64109225 384.6976297 4.48905945 384.65510559 C5.94474531 384.65928082 7.40042791 384.66475938 8.85610449 384.6714254 C12.84773414 384.68587406 16.83915722 384.68163713 20.83079815 384.67425859 C25.139019 384.66952776 29.44719511 384.68203605 33.75540161 384.692276 C42.1923967 384.70947124 50.62931734 384.71030247 59.06632541 384.7050631 C65.92440371 384.70102137 72.78246001 384.702465 79.64053726 384.70781136 C80.61669284 384.70855978 81.59284843 384.7093082 82.59858448 384.7100793 C84.58166317 384.71161078 86.56474185 384.71314913 88.54782052 384.71469427 C107.14458119 384.72842204 125.74129979 384.72297977 144.3380595 384.71150906 C161.34824061 384.7015773 178.35831294 384.71451587 195.36847727 384.73844325 C212.83761537 384.76283096 230.30670279 384.77244287 247.77585757 384.76579052 C257.58221069 384.76229746 267.38848015 384.7645361 277.1948204 384.78204155 C285.54313244 384.79675945 293.89130191 384.7974044 302.23961113 384.77997064 C306.49797438 384.7714547 310.75608291 384.7693255 315.01443291 384.78462219 C318.91548289 384.79846177 322.81605977 384.79371583 326.71708234 384.77438296 C328.12550167 384.77062035 329.53395883 384.77355252 330.94234447 384.78399461 C341.92892639 384.85963553 350.3567637 383.18937214 358.43946463 375.38466495 C364.73413001 368.2468052 364.88457021 359.3364254 364.82125854 350.28071594 C364.83167684 348.3663222 364.83167684 348.3663222 364.8423056 346.41325384 C364.86083482 342.89579624 364.85466203 339.37876245 364.84415257 335.86128795 C364.83713285 332.05822006 364.85317927 328.25523683 364.8661499 324.45219421 C364.88774765 317.0122154 364.88767411 309.57238979 364.87952436 302.13238996 C364.87321532 296.08434952 364.87436966 290.03635365 364.88079643 283.98831367 C364.88214892 282.69537472 364.88214892 282.69537472 364.88352872 281.37631579 C364.88537998 279.6250787 364.88724254 277.87384162 364.88911628 276.12260456 C364.9056795 259.71618412 364.89698756 243.30984978 364.8801307 226.90343452 C364.86542948 211.90126713 364.88007067 196.89929994 364.90890086 181.89715832 C364.93830727 166.48001725 364.94926387 151.06296854 364.93971866 135.64580065 C364.93869614 133.90144099 364.93770153 132.15708132 364.93673515 130.41272163 C364.93602057 129.12544246 364.93602057 129.12544246 364.93529155 127.81215764 C364.93312936 121.77289318 364.94292085 115.73371638 364.95750618 109.69447136 C364.97503864 102.33250282 364.97489887 94.97078964 364.95215452 87.6088311 C364.94102148 83.85467124 364.93782813 80.10096112 364.95645523 76.34682083 C364.97640703 72.27322855 364.95745553 68.20072938 364.93478394 64.12715149 C364.94661966 62.94621239 364.95845539 61.76527329 364.97064978 60.54854816 C364.87462948 52.0567691 362.84424814 46.43352423 357.3495636 39.96273804 C356.43110657 39.18543335 356.43110657 39.18543335 355.49409485 38.39242554 C354.88952454 37.85875366 354.28495422 37.32508179 353.6620636 36.77523804 C345.75577739 31.71416594 338.12901553 31.83504926 329.01060486 31.87301636 C327.55476804 31.86812313 326.0989351 31.86193133 324.64310873 31.85455847 C320.65567537 31.8381906 316.66844014 31.84047041 312.68098497 31.84593344 C308.3754844 31.84860752 304.07003618 31.83406478 299.76455688 31.82183838 C291.3347213 31.8007985 282.90495451 31.79624269 274.47509576 31.79802626 C267.62229326 31.79933456 260.76951219 31.7955263 253.91671371 31.7881012 C251.94179483 31.78600197 249.96687595 31.78390437 247.99195707 31.78180838 C246.5174415 31.78024308 246.5174415 31.78024308 245.01313774 31.77864617 C226.42779084 31.75974978 207.84248343 31.76079222 189.25713091 31.7676155 C172.26060186 31.77319112 155.26422354 31.75236362 138.26772971 31.71925503 C120.80872358 31.68550986 103.34978964 31.67035069 85.89075029 31.67497206 C76.09162249 31.67721583 66.29263401 31.67198695 56.49353409 31.64707947 C48.15147603 31.62605575 39.8096337 31.62248505 31.46756674 31.64137906 C27.21306798 31.65053011 22.95897133 31.65169946 18.70450401 31.63102341 C14.80582291 31.61228626 10.9078725 31.61684684 7.00921898 31.63956922 C5.6028281 31.64374812 4.1963809 31.63957878 2.79004963 31.62597328 C-9.06137175 31.51917286 -17.31726467 33.80450198 -25.2207489 42.91195679 Z " fill="#050819" transform="translate(88.69340515136719,47.732574462890625)"/>
<path d="M0 0 C4.530953 2.73012663 7.94410494 6.22610486 11.65240479 9.97166443 C12.46936829 10.78497726 13.28633179 11.5982901 14.12805176 12.43624878 C16.82037546 15.12048135 19.50171075 17.81539966 22.18267822 20.51097107 C24.05210118 22.38091273 25.92204267 24.25033614 27.79248047 26.1192627 C31.70804721 30.03394804 35.6176054 33.9545551 39.52349854 37.87889099 C44.03652138 42.41310127 48.55833225 46.93839657 53.08507562 51.45890611 C57.44565125 55.81378457 61.80047386 60.17436428 66.1526413 64.53764534 C68.00291164 66.39176846 69.85453672 68.24454067 71.70752716 70.09594536 C74.29308326 72.68113132 76.87205465 75.27270787 79.44927979 77.86619568 C80.218125 78.63256348 80.98697021 79.39893127 81.77911377 80.18852234 C82.47998108 80.89647446 83.18084839 81.60442657 83.9029541 82.33383179 C84.81766668 83.25162367 84.81766668 83.25162367 85.75085831 84.18795681 C88.50860139 87.40104678 89.58237142 90.14408517 89.60455322 94.35862732 C89.62131104 95.08823669 89.63806885 95.81784607 89.65533447 96.56956482 C88.55727524 103.86634551 83.30785189 108.3955135 78.31988525 113.34397888 C77.50817871 114.16094238 76.69647217 114.97790588 75.86016846 115.81962585 C73.18088802 118.51208665 70.49081042 121.19345288 67.79986572 123.87425232 C65.93239148 125.74374765 64.06536275 127.6136881 62.19876099 129.48405457 C58.28845958 133.39980512 54.37189502 137.30920743 50.45172119 141.21507263 C45.92390591 145.7265516 41.40701465 150.24875167 36.89562333 154.77664971 C32.54819703 159.13934292 28.19236644 163.49354206 23.83291245 167.84421539 C21.98152234 169.69360327 20.1323609 171.54522498 18.28546524 173.39910126 C15.7051657 175.98701099 13.11545912 178.56512264 10.52301025 181.14085388 C9.76023773 181.9096991 8.99746521 182.67854431 8.21157837 183.47068787 C7.50225159 184.17155518 6.7929248 184.87242249 6.06210327 185.5945282 C5.14569407 186.50924078 5.14569407 186.50924078 4.21077156 187.4424324 C0.28235774 190.59789889 -3.70415687 191.4417146 -8.71966553 191.30003357 C-13.25745188 190.5779104 -16.05494573 187.70722307 -19.02044678 184.42112732 C-21.32917413 181.08629893 -21.93932595 178.27488381 -22.14544678 174.29612732 C-22.20603271 173.48788513 -22.26661865 172.67964294 -22.32904053 171.84690857 C-20.79400565 164.77030123 -14.07002908 159.05720665 -9.05999756 154.10862732 C-8.42513931 153.47347702 -7.79028107 152.83832672 -7.13618469 152.18392944 C-5.06325422 150.11237809 -2.98335939 148.04797713 -0.90325928 145.98362732 C0.54591921 144.538184 1.99465304 143.09229476 3.44296265 141.64598083 C7.23608065 137.86045954 11.03516838 134.08098596 14.83557129 130.30278015 C18.72055318 126.43834242 22.59980327 122.56816018 26.47955322 118.69847107 C34.07815084 111.12125338 41.68307352 103.55041835 49.29205322 95.98362732 C48.02544023 93.21131517 46.7316448 91.17705299 44.56611633 89.03736877 C44.01236832 88.48520691 43.4586203 87.93304504 42.88809204 87.364151 C42.28284698 86.77080963 41.67760193 86.17746826 41.05401611 85.56614685 C40.41480728 84.93146484 39.77559845 84.29678284 39.11701965 83.64286804 C37.72997431 82.26677196 36.34066196 80.892958 34.94935799 79.52116776 C32.74636587 77.34834745 30.5501252 75.16890927 28.3556366 72.98750305 C22.11544547 66.78705545 15.86268589 60.59933743 9.60675049 54.41477966 C5.77912037 50.62990248 1.95885704 46.83771299 -1.85717964 43.04114914 C-3.31151317 41.59737256 -4.76875358 40.15651794 -6.22895622 38.71867752 C-8.27300817 36.70587717 -10.30763816 34.68397419 -12.34051514 32.65989685 C-12.94373596 32.07060394 -13.54695679 31.48131104 -14.16845703 30.87416077 C-18.03483409 26.99921361 -21.15881599 23.21380844 -22.10638428 17.63987732 C-22.04546164 12.03499459 -21.41979288 7.71770167 -17.27825928 3.54222107 C-12.00975269 -1.05789289 -6.72369001 -2.52360013 0 0 Z " fill="#05081A" transform="translate(139.70794677734375,161.01637268066406)"/>
<path d="M0 0 C1.14681747 -0.00571014 2.29363495 -0.01142029 3.47520447 -0.01730347 C5.371856 -0.01898026 5.371856 -0.01898026 7.30682373 -0.02069092 C8.64712155 -0.02531847 9.98741805 -0.03034305 11.32771301 -0.03573608 C14.97457485 -0.04887034 18.62141826 -0.05530733 22.26830006 -0.05974674 C24.5468273 -0.06267653 26.8253495 -0.06678121 29.10387421 -0.07125092 C36.23299265 -0.08493012 43.36209958 -0.09459403 50.49123025 -0.09845281 C58.72009632 -0.10293121 66.94879609 -0.12046713 75.17761159 -0.1494534 C81.53778144 -0.1710791 87.89790454 -0.1811576 94.25811076 -0.18249393 C98.05671372 -0.18354156 101.85516044 -0.18943999 105.65372467 -0.20731354 C109.22915235 -0.22380912 112.80430663 -0.22594267 116.37975883 -0.21717453 C118.31329716 -0.21603863 120.24682646 -0.22974557 122.18031311 -0.243927 C128.8813934 -0.21170229 134.09968252 -0.12597004 139.24334717 4.67559814 C142.82017426 9.35298742 144.02306907 11.86697439 143.93865967 17.69122314 C143.35793559 21.87644149 141.53127367 25.1306446 138.59881592 28.14044189 C132.16199893 32.94235631 126.28828567 32.71535964 118.44671631 32.67388916 C117.13205887 32.68250473 115.81740143 32.6911203 114.46290588 32.69999695 C110.8718557 32.72242208 107.28124769 32.71956754 103.69015431 32.71067548 C100.68576514 32.70555051 97.68145796 32.71287037 94.67707723 32.72014755 C87.58621937 32.73712483 80.49557682 32.73360291 73.40472412 32.71685791 C66.10353361 32.69993851 58.80294107 32.71577303 51.50181586 32.74808079 C45.21960356 32.7748207 38.9375769 32.78204089 32.65531343 32.77356571 C28.90918893 32.76864924 25.16342405 32.77078203 21.41734505 32.79135323 C17.23795668 32.81320707 13.05969382 32.79426232 8.88031006 32.77154541 C7.03239868 32.78908371 7.03239868 32.78908371 5.14715576 32.80697632 C-1.90960771 32.72900257 -7.05264536 32.00474618 -12.40118408 27.14044189 C-15.97833816 22.85911779 -17.06260587 18.85090788 -16.78790283 13.28106689 C-15.77353469 7.6661806 -11.85436069 4.30454106 -7.40118408 1.14044189 C-4.8027439 -0.1587782 -2.91092347 0.0086534 0 0 Z " fill="#05081A" transform="translate(256.40118408203125,319.85955810546875)"/>
</svg>